<svg width="513" height="207" viewBox="0 0 513 207" fill="none" xmlns="http://www.w3.org/2000/svg">
<path d="M61.2023 194.585C53.25 194.585 44.5581 193.937 35.1263 192.641C25.8933 191.373 18.1667 189.395 11.9466 186.708C11.7029 186.602 11.5471 186.362 11.5471 186.096V161.174C11.5471 160.693 12.0389 160.368 12.4836 160.552C18.7306 163.137 25.8159 165.134 33.7393 166.543C42.0614 168.024 49.9212 168.764 57.3186 168.764C71.5587 168.764 82.0075 166.358 88.6652 161.546C95.5078 156.549 98.9291 148.405 98.9291 137.114C98.9291 126.749 96.525 119.068 91.7166 114.07C86.9083 109.073 77.4766 106.574 63.4215 106.574H11.385C11.0149 106.574 10.7148 106.274 10.7148 105.904V88.2503L15.3913 13.6395C15.4135 13.2863 15.7063 13.0112 16.0602 13.0112H116.215C116.613 13.0112 116.923 13.3566 116.881 13.7527L114.528 35.7337C114.491 36.0743 114.204 36.3326 113.861 36.3326H41.5798C41.2266 36.3326 40.934 36.6068 40.9111 36.9593L37.9468 82.5392C37.9217 82.9256 38.2283 83.2529 38.6156 83.2529H68.1373C89.4049 83.2529 104.94 87.7876 114.741 96.857C124.543 105.926 129.443 119.531 129.443 137.669C129.443 155.253 123.71 169.135 112.244 179.315C100.778 189.495 83.7644 194.585 61.2023 194.585Z" fill="#F9F9F9"/>
<path d="M237.533 196.806C218.67 196.806 203.505 193.196 192.039 185.978C180.573 178.574 172.159 168.024 166.795 154.327C161.617 140.446 159.028 123.88 159.028 104.631C159.028 84.6411 161.525 67.6128 166.518 53.5459C171.696 39.4791 180.018 28.7439 191.484 21.3403C202.95 13.9367 218.3 10.2349 237.533 10.2349C256.767 10.2349 272.024 13.9367 283.305 21.3403C294.771 28.7439 303.001 39.4791 307.994 53.5459C313.172 67.6128 315.761 84.6411 315.761 104.631C315.761 123.88 313.172 140.446 307.994 154.327C302.816 168.024 294.493 178.574 283.027 185.978C271.561 193.196 256.397 196.806 237.533 196.806ZM237.533 170.986C255.287 170.986 267.678 165.155 274.705 153.495C281.733 141.649 285.247 125.361 285.247 104.631C285.247 82.6051 281.825 65.6693 274.983 53.8236C268.14 41.9778 255.657 36.0549 237.533 36.0549C219.41 36.0549 206.834 41.9778 199.806 53.8236C192.964 65.6693 189.543 82.6051 189.543 104.631C189.543 125.361 193.056 141.649 200.084 153.495C207.111 165.155 219.595 170.986 237.533 170.986Z" fill="#F9F9F9"/>
<path d="M423.773 196.806C404.909 196.806 389.745 193.196 378.279 185.978C366.813 178.574 358.398 168.024 353.035 154.327C347.857 140.446 345.268 123.88 345.268 104.631C345.268 84.6411 347.764 67.6128 352.758 53.5459C357.936 39.4791 366.258 28.7439 377.724 21.3403C389.19 13.9367 404.54 10.2349 423.773 10.2349C443.006 10.2349 458.263 13.9367 469.544 21.3403C481.01 28.7439 489.24 39.4791 494.233 53.5459C499.411 67.6128 502.001 84.6411 502.001 104.631C502.001 123.88 499.411 140.446 494.233 154.327C489.055 168.024 480.733 178.574 469.267 185.978C457.801 193.196 442.636 196.806 423.773 196.806ZM423.773 170.986C441.527 170.986 453.917 165.155 460.945 153.495C467.972 141.649 471.486 125.361 471.486 104.631C471.486 82.6051 468.065 65.6693 461.222 53.8236C454.38 41.9778 441.897 36.0549 423.773 36.0549C405.649 36.0549 393.074 41.9778 386.046 53.8236C379.203 65.6693 375.782 82.6051 375.782 104.631C375.782 125.361 379.296 141.649 386.323 153.495C393.351 165.155 405.834 170.986 423.773 170.986Z" fill="#F9F9F9"/>
<path d="M14.405 155.908L14.4049 155.908C10.6934 154.372 6.5207 157.066 6.5207 161.174V186.096C6.5207 188.338 7.84175 190.41 9.9531 191.322C16.7145 194.243 24.9142 196.312 34.4423 197.621C44.058 198.942 52.9818 199.611 61.2023 199.611C84.4269 199.611 102.845 194.381 115.582 183.073C128.285 171.795 134.47 156.456 134.47 137.669C134.47 118.651 129.313 103.493 118.155 93.1677C107.007 82.8525 89.9556 78.2265 68.1373 78.2265H43.2642L45.6619 41.3589H113.861C116.773 41.3589 119.216 39.1636 119.526 36.2688L114.528 35.7337L119.526 36.2688L121.879 14.2878C122.239 10.9208 119.601 7.98485 116.215 7.98485H16.0602C13.0524 7.98485 10.563 10.3232 10.3748 13.325C10.3748 13.325 10.3748 13.325 10.3748 13.325L5.69833 87.9359L5.68849 88.093V88.2503V105.904C5.68849 109.05 8.23891 111.601 11.385 111.601H63.4215C77.3261 111.601 84.8336 114.166 88.0946 117.555C91.6424 121.243 93.9028 127.416 93.9028 137.114C93.9028 147.375 90.844 153.726 85.7098 157.48C80.3352 161.359 71.1829 163.738 57.3186 163.738C50.2546 163.738 42.6915 163.031 34.6198 161.595C26.9879 160.237 20.2608 158.33 14.405 155.908ZM189.313 190.2L189.337 190.216L189.361 190.231C201.885 198.116 218.079 201.832 237.533 201.832C256.988 201.832 273.181 198.116 285.705 190.231L285.73 190.216L285.754 190.2C298.19 182.17 307.167 170.729 312.695 156.105L312.699 156.095L312.703 156.084C318.143 141.5 320.787 124.31 320.787 104.631C320.787 84.2467 318.152 66.6051 312.721 51.8367C307.394 36.8475 298.518 25.1849 286.047 17.1275C273.669 9.01022 257.34 5.20851 237.533 5.20851C217.712 5.20851 201.305 9.01595 188.758 17.1177C176.286 25.1709 167.317 36.8263 161.801 51.8096L161.791 51.837L161.781 51.8645C156.544 66.6196 154.002 84.2503 154.002 104.631C154.002 124.31 156.646 141.5 162.086 156.084L162.1 156.122L162.115 156.16C167.831 170.758 176.891 182.18 189.313 190.2ZM375.552 190.2L375.576 190.216L375.601 190.231C388.125 198.116 404.318 201.832 423.773 201.832C443.227 201.832 459.421 198.116 471.945 190.231L471.969 190.216L471.994 190.2C484.43 182.17 493.406 170.729 498.935 156.105L498.939 156.095L498.943 156.084C504.383 141.5 507.027 124.31 507.027 104.631C507.027 84.2469 504.392 66.6054 498.96 51.837C493.634 36.8478 484.758 25.1852 472.287 17.1277C459.909 9.01029 443.58 5.20851 423.773 5.20851C403.951 5.20851 387.545 9.01595 374.997 17.1177C362.525 25.1709 353.556 36.8263 348.041 51.8096L348.031 51.837L348.021 51.8645C342.783 66.6196 340.241 84.2503 340.241 104.631C340.241 124.31 342.886 141.5 348.326 156.084L348.34 156.122L348.355 156.16C354.071 170.758 363.13 182.18 375.552 190.2ZM280.22 104.631C280.22 124.871 276.777 140.142 270.392 150.914C264.548 160.599 254.127 165.959 237.533 165.959C220.73 165.959 210.232 160.583 204.398 150.915C198.012 140.143 194.569 124.871 194.569 104.631C194.569 83.0203 197.944 67.1124 204.144 56.3632C209.985 46.5379 220.561 41.0813 237.533 41.0813C254.527 41.0813 264.975 46.5476 270.63 56.3377C276.84 67.0873 280.22 83.0032 280.22 104.631ZM466.46 104.631C466.46 124.871 463.016 140.143 456.631 150.915C450.787 160.599 440.366 165.959 423.773 165.959C406.969 165.959 396.471 160.583 390.637 150.914C384.252 140.142 380.808 124.871 380.808 104.631C380.808 83.0198 384.184 67.1116 390.384 56.3624C396.226 46.5376 406.801 41.0813 423.773 41.0813C440.767 41.0813 451.215 46.5476 456.87 56.3377C463.079 67.0873 466.46 83.0032 466.46 104.631Z" stroke="black" stroke-opacity="0.2" stroke-width="10.0527"/>
<path d="M14.405 155.908L14.4049 155.908C10.6934 154.372 6.5207 157.066 6.5207 161.174V186.096C6.5207 188.338 7.84175 190.41 9.9531 191.322C16.7145 194.243 24.9142 196.312 34.4423 197.621C44.058 198.942 52.9818 199.611 61.2023 199.611C84.4269 199.611 102.845 194.381 115.582 183.073C128.285 171.795 134.47 156.456 134.47 137.669C134.47 118.651 129.313 103.493 118.155 93.1677C107.007 82.8525 89.9556 78.2265 68.1373 78.2265H43.2642L45.6619 41.3589H113.861C116.773 41.3589 119.216 39.1636 119.526 36.2688L114.528 35.7337L119.526 36.2688L121.879 14.2878C122.239 10.9208 119.601 7.98485 116.215 7.98485H16.0602C13.0524 7.98485 10.563 10.3232 10.3748 13.325C10.3748 13.325 10.3748 13.325 10.3748 13.325L5.69833 87.9359L5.68849 88.093V88.2503V105.904C5.68849 109.05 8.23891 111.601 11.385 111.601H63.4215C77.3261 111.601 84.8336 114.166 88.0946 117.555C91.6424 121.243 93.9028 127.416 93.9028 137.114C93.9028 147.375 90.844 153.726 85.7098 157.48C80.3352 161.359 71.1829 163.738 57.3186 163.738C50.2546 163.738 42.6915 163.031 34.6198 161.595C26.9879 160.237 20.2608 158.33 14.405 155.908ZM189.313 190.2L189.337 190.216L189.361 190.231C201.885 198.116 218.079 201.832 237.533 201.832C256.988 201.832 273.181 198.116 285.705 190.231L285.73 190.216L285.754 190.2C298.19 182.17 307.167 170.729 312.695 156.105L312.699 156.095L312.703 156.084C318.143 141.5 320.787 124.31 320.787 104.631C320.787 84.2467 318.152 66.6051 312.721 51.8367C307.394 36.8475 298.518 25.1849 286.047 17.1275C273.669 9.01022 257.34 5.20851 237.533 5.20851C217.712 5.20851 201.305 9.01595 188.758 17.1177C176.286 25.1709 167.317 36.8263 161.801 51.8096L161.791 51.837L161.781 51.8645C156.544 66.6196 154.002 84.2503 154.002 104.631C154.002 124.31 156.646 141.5 162.086 156.084L162.1 156.122L162.115 156.16C167.831 170.758 176.891 182.18 189.313 190.2ZM375.552 190.2L375.576 190.216L375.601 190.231C388.125 198.116 404.318 201.832 423.773 201.832C443.227 201.832 459.421 198.116 471.945 190.231L471.969 190.216L471.994 190.2C484.43 182.17 493.406 170.729 498.935 156.105L498.939 156.095L498.943 156.084C504.383 141.5 507.027 124.31 507.027 104.631C507.027 84.2469 504.392 66.6054 498.96 51.837C493.634 36.8478 484.758 25.1852 472.287 17.1277C459.909 9.01029 443.58 5.20851 423.773 5.20851C403.951 5.20851 387.545 9.01595 374.997 17.1177C362.525 25.1709 353.556 36.8263 348.041 51.8096L348.031 51.837L348.021 51.8645C342.783 66.6196 340.241 84.2503 340.241 104.631C340.241 124.31 342.886 141.5 348.326 156.084L348.34 156.122L348.355 156.16C354.071 170.758 363.13 182.18 375.552 190.2ZM280.22 104.631C280.22 124.871 276.777 140.142 270.392 150.914C264.548 160.599 254.127 165.959 237.533 165.959C220.73 165.959 210.232 160.583 204.398 150.915C198.012 140.143 194.569 124.871 194.569 104.631C194.569 83.0203 197.944 67.1124 204.144 56.3632C209.985 46.5379 220.561 41.0813 237.533 41.0813C254.527 41.0813 264.975 46.5476 270.63 56.3377C276.84 67.0873 280.22 83.0032 280.22 104.631ZM466.46 104.631C466.46 124.871 463.016 140.143 456.631 150.915C450.787 160.599 440.366 165.959 423.773 165.959C406.969 165.959 396.471 160.583 390.637 150.914C384.252 140.142 380.808 124.871 380.808 104.631C380.808 83.0198 384.184 67.1116 390.384 56.3624C396.226 46.5376 406.801 41.0813 423.773 41.0813C440.767 41.0813 451.215 46.5476 456.87 56.3377C463.079 67.0873 466.46 83.0032 466.46 104.631Z" stroke="#FCFCFC" stroke-opacity="0.1" stroke-width="10.0527"/>
</svg>
