<svg width="98" height="92" viewBox="0 0 98 92" fill="none" xmlns="http://www.w3.org/2000/svg">
<path d="M58.5658 47.5269C53.322 42.0095 48.337 36.3019 44.129 29.9601C41.151 25.394 38.4967 20.2571 35.3245 17.0862C32.4759 14.169 30.6632 11.0615 29.7569 7.89062C23.4124 9.66633 19.0102 11.1884 13.3131 17.0228C-26.372 57.103 31.1164 118.999 75.2686 78.2846C78.5055 75.304 77.3402 71.6892 79.2824 68.4548C73.1322 61.4789 65.0398 54.3126 58.5658 47.5269Z" fill="#DE814B"/>
<path d="M75.2712 78.2858C34.3561 110.819 -22.6145 59.1335 13.3158 16.9606C13.8985 16.3264 14.5458 15.6288 15.1932 14.9946C23.4151 7.00394 32.5434 3.26227 41.4774 2.69151C42.3837 2.62809 43.0958 3.32569 43.1606 4.15013C43.2901 9.3504 46.7212 12.8384 51.7709 13.536C52.5478 13.6628 53.001 14.3604 52.8067 15.1214C52.2888 16.7703 52.0946 18.546 52.0946 20.3851C52.2888 29.7076 60.187 37.3812 69.7037 37.4446C71.6458 37.4446 73.5233 37.1909 75.336 36.6201C76.0481 36.3665 76.825 36.8104 76.9545 37.5714C78.1198 43.7864 83.8816 42.6449 86.6006 41.757C87.3775 41.5033 88.2191 41.9473 88.4133 42.7083C93.7219 61.6703 75.2712 78.2858 75.2712 78.2858Z" fill="#F6B059"/>
<path d="M47.4946 38.205C47.4946 42.898 43.6103 46.0689 38.8196 46.0689C34.0289 46.0689 30.1445 42.898 30.1445 38.205C30.1445 33.5121 34.0289 29.707 38.8196 29.707C43.6103 29.707 47.4946 33.4487 47.4946 38.205Z" fill="#6D420D"/>
<path d="M74.7503 58.6892C74.7503 62.3041 71.7723 65.2213 68.0821 65.2213C64.392 65.2213 61.8672 63.0651 61.8672 59.4502C61.8672 55.8354 64.392 52.0938 68.0821 52.0938C71.7723 52.0937 74.7503 55.0744 74.7503 58.6892Z" fill="#6D420D"/>
<path d="M24.9046 50.6975C24.9046 53.4879 22.8329 55.0734 19.9844 55.0734C17.1359 55.0734 14.6758 53.4879 14.6758 50.6975C14.6758 47.9071 16.9417 45.6875 19.7902 45.6875C22.6387 45.6875 24.9046 47.9071 24.9046 50.6975Z" fill="#6D420D"/>
<path d="M40.5714 67.6932C40.5714 68.9616 39.5356 69.9763 38.2408 69.9763C36.946 69.9763 35.9102 68.9616 35.9102 67.6932C35.9102 66.4248 36.946 65.4102 38.2408 65.4102C39.5356 65.4102 40.5714 66.4248 40.5714 67.6932Z" fill="#6D420D"/>
<path d="M24.7732 23.8742C26.2033 23.8742 27.3627 22.7385 27.3627 21.3375C27.3627 19.9365 26.2033 18.8008 24.7732 18.8008C23.343 18.8008 22.1836 19.9365 22.1836 21.3375C22.1836 22.7385 23.343 23.8742 24.7732 23.8742Z" fill="#6D420D"/>
<path d="M71.5757 6.11551C71.8346 9.15958 69.1156 11.6329 65.4902 11.6329C61.8648 11.6329 59.081 8.9059 59.2752 5.54475C59.4694 2.18359 62.1885 -0.289706 65.3607 0.0273843C68.5329 0.344474 71.3167 3.00803 71.5757 6.11551Z" fill="#F6B059"/>
<path d="M66.9161 10.4268C68.3404 10.4268 69.6351 10.0463 70.671 9.34866C69.5704 10.7439 67.7577 11.6317 65.5566 11.6317C61.9312 11.6317 59.1474 8.90473 59.3416 5.607C59.4711 3.57762 60.5069 1.86533 61.9959 0.914062C61.2838 1.86533 60.7659 3.07028 60.7011 4.40205C60.5717 7.63637 63.3554 10.3633 66.9161 10.4268Z" fill="#DE814B"/>
<path d="M71.2516 23.3657C71.1221 25.3951 69.3741 27.1074 67.3672 27.2977C65.3603 27.4245 63.7418 25.7756 63.8066 23.6194C63.8066 21.4632 65.5545 19.6875 67.6909 19.6875C69.8273 19.6875 71.3811 21.3364 71.2516 23.3657Z" fill="#F6B059"/>
<path d="M68.1445 26.4105C68.9213 26.3471 69.6982 26.03 70.3456 25.5861C69.6335 26.5373 68.5329 27.1715 67.3028 27.2984C65.2959 27.4252 63.7422 25.7763 63.7422 23.6201C63.7422 22.3518 64.3896 21.1468 65.3607 20.4492C64.9075 21.0834 64.5838 21.9078 64.5838 22.7323C64.5191 24.8885 66.1375 26.5373 68.1445 26.4105Z" fill="#DE814B"/>
<path d="M97.7303 24.953C97.5361 27.3629 95.5292 29.3923 93.1338 29.5191C90.8032 29.646 88.9258 27.7434 88.9258 25.2067C88.9905 22.67 90.9974 20.6406 93.5223 20.6406C96.0471 20.6406 97.9245 22.6066 97.7303 24.953Z" fill="#F6B059"/>
<path d="M94.1049 28.5677C95.076 28.5042 95.9824 28.1237 96.6945 27.553C95.8529 28.6945 94.5581 29.4555 93.1338 29.5189C90.8032 29.6458 88.9258 27.7432 88.9258 25.2065C88.9258 23.6845 89.7026 22.3527 90.8032 21.4648C90.2206 22.2259 89.8969 23.1771 89.8969 24.1918C89.8969 26.792 91.7743 28.6945 94.1049 28.5677Z" fill="#DE814B"/>
</svg>
