<svg width="231" height="232" viewBox="0 0 231 232" fill="none" xmlns="http://www.w3.org/2000/svg">
<rect width="231" height="232" rx="12" fill="url(#paint0_linear_4204_82232)"/>
<path d="M38.2344 179.911C38.2344 154.137 89.9146 139.962 115.771 139.962C141.627 139.962 193.307 154.137 193.307 179.911V192.798H38.2503M154.531 76.7981C154.531 87.0474 150.453 96.8836 143.172 104.145C135.908 111.392 126.046 115.475 115.755 115.475C105.463 115.475 95.618 111.407 88.3375 104.145C81.057 96.8836 76.9786 87.0633 76.9786 76.7981C76.9786 66.5329 81.057 56.7126 88.3375 49.4507C95.618 42.1888 105.495 38.1367 115.771 38.1367C126.046 38.1367 135.908 42.2047 143.188 49.4666C150.453 56.7126 154.531 66.5488 154.531 76.7981Z" fill="url(#paint1_linear_4204_82232)"/>
<defs>
<linearGradient id="paint0_linear_4204_82232" x1="55.2475" y1="3.00588e-06" x2="213.01" y2="114.459" gradientUnits="userSpaceOnUse">
<stop stop-color="white" stop-opacity="0.3"/>
<stop offset="1" stop-color="white" stop-opacity="0.1"/>
</linearGradient>
<linearGradient id="paint1_linear_4204_82232" x1="14.7793" y1="-17.044" x2="270.733" y2="116.06" gradientUnits="userSpaceOnUse">
<stop stop-color="#494C74"/>
<stop offset="0.707116" stop-color="#1B1E25"/>
</linearGradient>
</defs>
</svg>
