<svg width="33" height="36" viewBox="0 0 33 36" fill="none" xmlns="http://www.w3.org/2000/svg">
<mask id="mask0_3869_18251" style="mask-type:luminance" maskUnits="userSpaceOnUse" x="0" y="0" width="33" height="36">
<path d="M31.1106 11.4119C31.0963 11.4608 31.0842 11.507 31.0754 11.5504C31.0754 11.585 31.0777 11.6196 31.0787 11.6541C31.0822 11.9357 31.0811 12.2163 31.0777 12.4954L31.0953 12.5588L31.0762 12.5635C31.0732 12.7829 31.0693 13.0019 31.0636 13.2184C31.0562 13.5777 31.0431 13.9346 31.0367 14.2837C31.2156 14.3164 31.3486 14.4044 31.3028 14.5339C31.2087 14.6045 31.1192 14.6809 31.0347 14.7627C31.0324 15.2334 31.0638 15.6883 31.1047 16.1182C31.1474 16.5335 31.212 16.9462 31.2983 17.3546C31.4587 18.1138 31.6729 18.7257 31.8555 19.1392C32.0356 19.5554 32.1761 19.7662 32.1763 19.7664L32.0536 19.8483C32.0536 19.8483 31.8987 19.6258 31.7057 19.2072C31.5092 18.7895 31.276 18.1699 31.0959 17.4007C30.9988 16.9868 30.9237 16.5681 30.8708 16.1463C30.8299 15.7924 30.7934 15.4212 30.7767 15.0384C30.4554 15.42 30.1177 15.9946 30.1844 16.684C31.4957 30.2346 17.7208 27.6436 16.0648 29.0077C11.2115 33.0017 11.6439 34.215 9.94744 35.0239C9.11193 35.4225 8.04435 35.0738 7.95125 34.0271C7.85814 32.9804 8.1833 32.4823 8.1833 32.4823C8.1833 32.4823 6.74493 33.4296 6.1871 33.5301C5.62927 33.6305 4.74792 33.58 4.37671 32.6829C4.09166 31.9945 4.70842 31.3067 5.01108 31.0237C4.82363 31.0908 4.47043 31.1903 3.8197 31.3374C2.05576 31.736 0.302873 30.6494 0.802178 29.7427C1.84581 27.849 5.13406 30.0417 13.8768 24.8696C15.7537 25.346 17.8467 25.5068 19.1109 24.2532C20.4351 22.9341 19.6861 20.7075 17.7491 20.9484C17.6785 20.9572 17.5713 20.9517 17.5794 21.0188C17.5876 21.0859 17.6916 21.0581 17.7587 21.054C19.5042 20.9486 20.0549 22.9055 18.8412 23.9692C17.5316 25.1069 15.3725 24.6396 13.7102 24.0541C8.6071 21.1248 9.29569 14.81 9.68285 11.1696C10.0921 7.33065 9.19173 5.94201 9.19173 5.94201C9.19173 5.94201 15.6874 6.71818 18.0552 10.8839C20.5749 15.3148 20.4648 17.6632 21.5317 18.7913C22.2011 19.4992 23.5382 19.0983 24.3192 17.5662C25.2606 15.7194 25.1003 12.5275 27.2596 12.2365C29.4189 11.9455 30.4912 14.3647 30.4912 14.3647C30.5727 14.3151 30.6643 14.2847 30.7593 14.2757C30.7568 13.9268 30.7607 13.5742 30.7572 13.2145C30.7572 12.9445 30.7545 12.6735 30.749 12.4015C30.7388 12.3498 30.7231 12.2993 30.7024 12.2509C30.6629 12.1289 30.6124 12.0109 30.5516 11.8981C30.4939 11.7653 30.3995 11.6415 30.3185 11.5093C30.2198 11.3908 30.1314 11.2608 30.0238 11.163C29.9351 11.0679 29.8379 10.981 29.7334 10.9033C29.5624 10.9832 29.3446 10.9287 29.1416 10.7771C28.8863 10.587 28.5099 9.91763 28.5654 9.82922C28.6208 9.74082 29.1298 9.92254 29.502 10.1495C29.8478 10.36 29.9221 10.6226 29.872 10.7691C29.9782 10.8414 30.0781 10.9226 30.1707 11.0116C30.2921 11.1115 30.3938 11.2434 30.5065 11.3662C30.5806 11.4728 30.6621 11.5752 30.7286 11.6816C30.7286 11.6758 30.7286 11.6701 30.7286 11.6642C30.7016 11.1954 30.6709 10.7274 30.6039 10.2727C30.5863 10.2422 30.5683 10.2113 30.5524 10.1796C30.5172 10.1026 30.4699 10.0319 30.4122 9.97001C30.3551 9.90698 30.3068 9.83557 30.2436 9.77888C30.1804 9.7222 30.1149 9.66859 30.0533 9.61518C29.9201 9.51736 29.794 9.42917 29.6774 9.35816C29.6243 9.32583 29.5758 9.29554 29.5319 9.2673C29.3418 9.48483 29.0129 9.49547 28.6724 9.34261C28.293 9.17276 27.6233 8.4279 27.6685 8.29898C27.7137 8.17006 28.414 8.25703 28.9528 8.44038C29.4318 8.60306 29.6076 8.89671 29.6012 9.09786C29.6517 9.12706 29.7098 9.1598 29.7754 9.19609C29.8943 9.26075 30.0338 9.34834 30.1791 9.44492C30.2491 9.49976 30.3224 9.55604 30.395 9.61334C30.4386 9.65049 30.4793 9.69085 30.5168 9.73407C30.4601 9.44206 30.3891 9.15803 30.3121 8.88095C30.2583 8.81956 30.1926 8.74283 30.1177 8.65586C30.0136 8.53635 29.8939 8.39393 29.7623 8.24659L29.316 7.83466C29.2395 7.76488 29.1664 7.69142 29.0878 7.62553L28.8453 7.4477C28.6859 7.3374 28.5474 7.21237 28.4099 7.1428L28.3382 7.10474C28.0088 7.44934 27.461 7.44852 26.8999 7.18209C26.2682 6.88271 25.1691 5.60457 25.2497 5.39011C25.3303 5.17566 26.5055 5.34714 27.4049 5.67537C28.3292 6.012 28.564 6.62815 28.4426 6.94963L28.504 6.97889C28.6528 7.04724 28.7976 7.16756 28.9685 7.27602L29.2264 7.45036C29.3107 7.51462 29.3901 7.58849 29.4719 7.65766L29.9536 8.07306C30.0021 8.12299 30.0465 8.17047 30.0915 8.21815C29.9872 7.93841 29.8742 7.66912 29.7537 7.41455C29.5726 7.01347 29.362 6.65311 29.1707 6.31813C28.9544 5.99849 28.787 5.68376 28.5977 5.43186C28.4152 5.17505 28.2642 4.94401 28.1252 4.76414L28.0458 4.6561C27.4999 4.81694 26.7601 4.27855 26.191 3.45408C25.3614 2.25227 25.4292 0.965535 25.5254 0.828021C25.6215 0.690508 26.8174 1.66129 27.6059 2.6116C28.3579 3.5167 28.4138 4.24499 28.2198 4.53004L28.3033 4.61967C28.4647 4.78338 28.635 5.00581 28.8369 5.25526C29.0434 5.50082 29.2497 5.80081 29.4758 6.12618C29.6544 6.41717 29.8478 6.72985 30.0267 7.07281C30.0218 6.95781 30.0173 6.84056 30.023 6.72494C30.0336 6.53606 30.0435 6.34698 30.0543 6.16977C30.0574 6.08791 30.0653 6.00913 30.0748 5.93403C29.8362 5.86978 29.5632 5.44516 29.7195 4.68577C29.8722 3.94008 30.2252 3.07715 30.3858 3.11603C30.5464 3.15491 30.8863 4.44737 30.8207 5.00131C30.7662 5.46255 30.5751 5.8135 30.2763 5.91479C30.2704 5.99951 30.2651 6.08894 30.2661 6.18082C30.264 6.35435 30.262 6.53954 30.2602 6.72494C30.2583 6.91034 30.2853 7.08816 30.2949 7.25698C30.3015 7.3415 30.308 7.42335 30.314 7.5007C30.3304 7.57949 30.3459 7.65397 30.3598 7.72293C30.3682 7.76386 30.376 7.8009 30.3834 7.83712C30.4788 8.07463 30.5675 8.32067 30.6494 8.57523C30.6623 8.618 30.6735 8.662 30.686 8.70517C30.6889 8.68962 30.6917 8.67489 30.6948 8.65934C30.7128 8.58014 30.72 8.49563 30.7476 8.41869C30.8071 8.22203 30.8651 8.02784 30.9238 7.85349C30.7306 7.65643 30.6154 7.05542 30.9312 6.39752C31.2598 5.71098 31.7978 5.15704 31.9441 5.23378C32.0904 5.31051 32.1078 6.64677 31.9091 7.16817C31.7374 7.62185 31.4501 7.92041 31.1172 7.92204C31.0697 8.09353 31.0243 8.2822 30.9774 8.4723C30.9545 8.54842 30.9535 8.62537 30.9404 8.70026C30.9273 8.77516 30.9199 8.84883 30.9101 8.92024C30.8862 9.05197 30.8767 9.18591 30.8818 9.31969C30.8818 9.39608 30.8818 9.46307 30.8818 9.52064C30.9168 9.70481 30.9483 9.89061 30.9713 10.0789C31.0001 10.2737 31.0187 10.4699 31.0339 10.667C31.046 10.7007 31.0535 10.7359 31.0562 10.7716C31.0584 10.7875 31.0603 10.8018 31.0623 10.8172C31.1135 10.7143 31.1698 10.614 31.2309 10.5168C31.2391 10.5029 31.2481 10.4898 31.2565 10.4759C31.1477 10.2389 31.1831 9.71504 31.5694 9.22085C31.9967 8.67366 32.5838 8.28588 32.6992 8.38288C32.8146 8.47987 32.5682 9.67207 32.2899 10.0985C32.0507 10.465 31.7403 10.6744 31.4458 10.6167C31.4427 10.6224 31.4395 10.6277 31.4366 10.6334C31.2856 10.9074 31.1653 11.2046 31.1106 11.4119ZM19.3248 11.8813C20.5669 14.2123 20.7711 17.6837 22.2619 17.8879C22.8095 17.9628 22.9357 17.6327 22.9357 17.6327C22.9357 17.6327 22.3218 17.7895 21.833 16.9077C20.812 15.0699 20.0973 8.12688 17.8715 5.69706C15.6457 3.26725 12.562 3.30777 12.562 3.30777L13.522 5.97271C16.8203 7.66441 17.7186 8.86745 19.3248 11.8813Z" fill="white"/>
</mask>
<g mask="url(#mask0_3869_18251)">
<path d="M40.495 -1.57227H-0.301758V20.4561H40.495V-1.57227Z" fill="#3A95FC"/>
<path d="M40.495 20.1426H-0.301758V42.1711H40.495V20.1426Z" fill="#FED800"/>
</g>
</svg>
