<svg width="24" height="24" viewBox="0 0 24 24" fill="none" xmlns="http://www.w3.org/2000/svg">
<path d="M3.62437 7.21895C3.29624 6.95668 2.83921 6.92733 2.48032 7.14566C2.16622 7.33683 1.98573 7.6821 2.00075 8.04146L2.01966 8.19638L4.01958 18.1956C4.11305 18.663 4.5233 19.0002 4.99992 19.0002L19.0003 19.0004C19.4768 19.0003 19.8866 18.6635 19.9802 18.1963L21.9801 8.19593C22.0625 7.78382 21.8787 7.36395 21.5197 7.14546C21.1607 6.92717 20.7032 6.9569 20.3751 7.21938L16.2267 10.5381L12.8324 5.44539C12.6469 5.16719 12.3344 4.99948 12 4.99948C11.7075 4.99949 11.4321 5.12798 11.2435 5.34626L11.1683 5.4449L7.77201 10.5376L3.62437 7.21895Z" fill="#DBE0E2"/>
</svg>
