<svg width="1.5em" height="1.5em" viewBox="0 0 24 24" fill="none" xmlns="http://www.w3.org/2000/svg">
  <path
    d="M12.821 10.7837L11.3116 11.9566L11.1076 12.0994C10.0061 12.7929 8.56808 12.5073 7.80316 11.467C7.02805 10.4064 7.22183 8.92752 8.24171 8.10141L10.6079 6.18402C10.3631 6.12283 10.1081 6.08203 9.85314 6.08203H9.84294C9.2922 6.08203 8.75166 6.24521 8.28251 6.56138L5.93677 8.12181H3.32585C2.59153 8.12181 2 8.71334 2 9.44766V13.5272C2 14.2615 2.59153 14.8531 3.32585 14.8531H6.85467L6.91586 14.9041L9.83274 17.566C10.3733 18.0555 11.2096 18.0249 11.7093 17.4844L11.8215 17.3518C11.9133 17.2192 11.9847 17.0764 12.0255 16.9234L12.1071 16.5869L12.9026 17.311C13.4431 17.8107 14.2794 17.7699 14.7792 17.2294C14.9016 17.0968 14.9934 16.9438 15.0546 16.7705L15.1464 16.5257L15.3605 16.6685C15.9113 17.0356 16.6252 16.9438 17.0739 16.4645C17.5635 15.9239 17.5329 15.0876 16.9924 14.5879L12.821 10.7837Z"
    fill="currentColor" />
  <path
    d="M20.6639 8.12181H18.0326L17.8593 8.00962L15.5441 6.53078C15.0852 6.23501 14.5548 6.08203 14.0143 6.08203C13.3717 6.08203 12.7394 6.30641 12.2295 6.71436L9.14941 9.21309C8.75166 9.52925 8.64967 10.1004 8.90464 10.5389L8.96583 10.6307C9.12902 10.8551 9.37379 11.0081 9.65936 11.0387C9.93473 11.0795 10.2203 11.0081 10.4447 10.8347L13.6063 8.37678L13.7185 8.30539C14.0245 8.1524 14.4018 8.23399 14.6058 8.49917C14.8506 8.80513 14.7894 9.26408 14.4834 9.49866L14.0041 9.86582L19.4197 14.8531H20.6741C21.4085 14.8531 22 14.2615 22 13.5272V9.44766C21.9898 8.71334 21.3983 8.12181 20.6639 8.12181Z"
    fill="currentColor" />
</svg>