<svg width="1.5em" height="1.5em" viewBox="0 0 24 24" fill="none" xmlns="http://www.w3.org/2000/svg">
  <path
    d="M15 2C15.5522 2.00007 16 2.44776 16 3C16 3.55224 15.5522 3.99993 15 4V8.82422L18.9385 19.6572C19.0254 19.8652 19.0735 20.0874 19.0732 20.3135C19.0729 20.5767 19.0113 20.8368 18.8936 21.0723C18.7759 21.3075 18.6048 21.5118 18.3945 21.6699C18.1841 21.8281 17.9396 21.9357 17.6807 21.9834C17.6211 21.9944 17.5606 22 17.5 22H6.5C6.43923 22 6.37813 21.9944 6.31836 21.9834C6.05961 21.9357 5.81577 21.828 5.60547 21.6699C5.3952 21.5118 5.22416 21.3075 5.10645 21.0723C4.98872 20.8368 4.92707 20.5767 4.92676 20.3135C4.92651 20.0873 4.97459 19.8652 5.06152 19.6572L9 8.82422V4C8.44772 4 8 3.55228 8 3C8 2.44772 8.44772 2 9 2H15ZM7.06348 20H16.9365L13.2998 10H10.7002L7.06348 20ZM11 8H13V4H11V8Z"
    fill="currentColor" />
  <path d="M7.06348 20H16.9365L13.2998 10H10.7002L7.06348 20Z" fill="currentColor" />
</svg>