<svg width="1.5em" height="1.5em" viewBox="0 0 24 24" fill="none" xmlns="http://www.w3.org/2000/svg">
  <path
    d="M6.34327 4.93759C6.43625 5.03046 6.51001 5.14075 6.56033 5.26215C6.61066 5.38355 6.63656 5.51367 6.63656 5.64509C6.63656 5.7765 6.61066 5.90663 6.56033 6.02803C6.51001 6.14943 6.43625 6.25971 6.34327 6.35259C4.84271 7.8534 3.99972 9.88879 3.99972 12.0111C3.99972 14.1334 4.84271 16.1688 6.34327 17.6696C6.43878 17.7618 6.51497 17.8722 6.56738 17.9942C6.61978 18.1162 6.64737 18.2474 6.64852 18.3802C6.64968 18.513 6.62438 18.6446 6.5741 18.7675C6.52381 18.8904 6.44956 19.0021 6.35567 19.096C6.26178 19.1899 6.15012 19.2641 6.02723 19.3144C5.90433 19.3647 5.77265 19.39 5.63987 19.3888C5.50709 19.3877 5.37587 19.3601 5.25387 19.3077C5.13187 19.2553 5.02152 19.1791 4.92927 19.0836C1.02227 15.1776 1.02227 8.84359 4.92927 4.93759C5.1168 4.75012 5.37111 4.6448 5.63627 4.6448C5.90144 4.6448 6.15575 4.75012 6.34327 4.93759ZM19.0753 4.93759C22.9813 8.84459 22.9813 15.1776 19.0753 19.0836C18.8878 19.2712 18.6334 19.3767 18.3681 19.3768C18.1029 19.3769 17.8484 19.2716 17.6608 19.0841C17.4731 18.8966 17.3677 18.6422 17.3676 18.3769C17.3675 18.1117 17.4728 17.8572 17.6603 17.6696C19.1608 16.1688 20.0038 14.1334 20.0038 12.0111C20.0038 9.88879 19.1608 7.8534 17.6603 6.35259C17.4726 6.16495 17.3672 5.91045 17.3672 5.64509C17.3672 5.37972 17.4726 5.12523 17.6603 4.93759C17.8479 4.74995 18.1024 4.64453 18.3678 4.64453C18.6331 4.64453 18.8876 4.74995 19.0753 4.93759ZM9.31027 7.81159C9.49775 7.99911 9.60306 8.25342 9.60306 8.51859C9.60306 8.78375 9.49775 9.03806 9.31027 9.22559C8.94623 9.5896 8.65744 10.0218 8.46042 10.4974C8.2634 10.973 8.16199 11.4828 8.16199 11.9976C8.16199 12.5124 8.2634 13.0222 8.46042 13.4978C8.65744 13.9734 8.94623 14.4056 9.31027 14.7696C9.40312 14.8625 9.47675 14.9728 9.52698 15.0942C9.5772 15.2155 9.60302 15.3456 9.60298 15.4769C9.60293 15.6083 9.57701 15.7383 9.5267 15.8597C9.4764 15.981 9.40268 16.0912 9.30977 16.1841C9.21686 16.2769 9.10658 16.3506 8.98521 16.4008C8.86384 16.451 8.73377 16.4768 8.60242 16.4768C8.47107 16.4767 8.34102 16.4508 8.21969 16.4005C8.09835 16.3502 7.98812 16.2765 7.89527 16.1836C6.7851 15.0734 6.16142 13.5676 6.16142 11.9976C6.16142 10.4275 6.7851 8.9218 7.89527 7.81159C7.98815 7.71861 8.09844 7.64485 8.21983 7.59453C8.34123 7.5442 8.47136 7.5183 8.60277 7.5183C8.73419 7.5183 8.86432 7.5442 8.98571 7.59453C9.10711 7.64485 9.2174 7.71861 9.31027 7.81159ZM16.2683 7.81159C17.3784 8.9218 18.0021 10.4275 18.0021 11.9976C18.0021 13.5676 17.3784 15.0734 16.2683 16.1836C16.0797 16.3657 15.8271 16.4665 15.5649 16.4643C15.3027 16.462 15.0519 16.3568 14.8665 16.1714C14.681 15.986 14.5759 15.7352 14.5736 15.473C14.5713 15.2108 14.6721 14.9582 14.8543 14.7696C15.2183 14.4056 15.5071 13.9734 15.7041 13.4978C15.9011 13.0222 16.0026 12.5124 16.0026 11.9976C16.0026 11.4828 15.9011 10.973 15.7041 10.4974C15.5071 10.0218 15.2183 9.5896 14.8543 9.22559C14.6721 9.03699 14.5713 8.78438 14.5736 8.52219C14.5759 8.25999 14.681 8.00918 14.8665 7.82377C15.0519 7.63836 15.3027 7.53319 15.5649 7.53091C15.8271 7.52864 16.0797 7.62943 16.2683 7.81159ZM12.0823 10.5816C12.4801 10.5816 12.8616 10.7396 13.1429 11.0209C13.4242 11.3022 13.5823 11.6838 13.5823 12.0816C13.5823 12.4794 13.4242 12.8609 13.1429 13.1422C12.8616 13.4236 12.4801 13.5816 12.0823 13.5816C11.6844 13.5816 11.3029 13.4236 11.0216 13.1422C10.7403 12.8609 10.5823 12.4794 10.5823 12.0816C10.5823 11.6838 10.7403 11.3022 11.0216 11.0209C11.3029 10.7396 11.6844 10.5816 12.0823 10.5816Z"
    fill="currentColor" />
</svg>