<svg width="1.5em" height="1.5em" viewBox="0 0 24 24" fill="none" xmlns="http://www.w3.org/2000/svg">
  <path
    d="M21 16.26C21 16.485 20.955 16.71 20.865 16.917C20.7779 17.1244 20.6528 17.3137 20.496 17.475C20.3331 17.6289 20.1441 17.754 19.938 17.844C19.7266 17.93 19.5002 17.9729 19.272 17.97C18.2534 17.9528 17.2361 18.0494 16.239 18.258C15.0574 18.3974 13.9191 18.787 12.9 19.401V5.98203C13.8819 5.51403 14.934 5.20983 16.014 5.08203C17.1132 4.86384 18.2326 4.76427 19.353 4.78503C19.7993 4.8098 20.2187 5.00658 20.523 5.33403C20.82 5.65083 20.9847 6.06933 20.982 6.50402L21 16.26ZM11.1 5.98203V19.401C10.0977 18.793 8.97828 18.4035 7.81502 18.258C6.79918 18.0526 5.76434 17.956 4.72803 17.97C4.49984 17.9729 4.27339 17.93 4.06203 17.844C3.85644 17.7535 3.66775 17.6288 3.50403 17.475C3.34354 17.3167 3.21787 17.1267 3.13503 16.917C3.04469 16.7098 2.9987 16.486 3.00003 16.26V6.45002C3.00145 6.01617 3.16773 5.59907 3.46518 5.28323C3.76264 4.96739 4.16903 4.77643 4.60203 4.74903C5.74655 4.72009 6.89072 4.81972 8.01302 5.04603C9.08733 5.18224 10.131 5.49868 11.1 5.98203Z"
    fill="currentColor" />
</svg>