<svg width="2em" height="2em" viewBox="0 0 48 48" fill="none" xmlns="http://www.w3.org/2000/svg">
<path fill-rule="evenodd" clip-rule="evenodd" d="M44.5327 23.3687C44.5327 24.1067 44.5343 24.8447 44.5359 25.5827C44.5395 27.2599 44.5431 28.937 44.5281 30.614C44.5042 33.3146 43.346 35.4178 41.0744 36.8545C38.5144 38.4737 35.9454 40.0788 33.3765 41.6839C31.7701 42.6877 30.1637 43.6914 28.5595 44.6985C25.789 46.438 23.0463 46.436 20.2714 44.6793C16.9432 42.5724 13.6015 40.4874 10.2597 38.4024L10.2586 38.4017C9.37364 37.8495 8.48867 37.2973 7.60394 36.7448C5.2161 35.2535 4.00558 33.1043 4.00295 30.2794C3.99855 25.5701 3.99965 20.8607 4.00251 16.1509C4.00426 13.3015 5.21061 11.1217 7.64681 9.65646C11.9332 7.07867 16.2229 4.50618 20.5231 1.9518C22.9947 0.483704 25.5157 0.477741 27.9816 1.93436C32.3225 4.49846 36.6425 7.09833 40.9535 9.71277C43.3383 11.159 44.5235 13.3221 44.5312 16.1233C44.5359 17.8047 44.5348 19.486 44.5337 21.1674V21.1675V21.1675V21.1676V21.1676V21.1676V21.1677V21.1677V21.1678V21.1678V21.1678V21.1679C44.5332 21.9015 44.5327 22.635 44.5327 23.3687ZM40.9282 12.9444C40.9436 13.8266 40.6301 14.2941 40.1309 14.5977C38.8134 15.3993 37.488 16.1877 36.1627 16.9762L36.1616 16.9768L36.1574 16.9793C35.5039 17.3681 34.8504 17.7569 34.1979 18.1472C33.9082 18.3203 33.642 18.308 33.3538 18.1344C32.6779 17.7273 32 17.3234 31.3221 16.9196L31.3217 16.9194L31.3214 16.9192L31.321 16.919L31.3207 16.9188L31.3203 16.9186L31.32 16.9183L31.3196 16.9181L31.3193 16.9179L31.319 16.9178C30.07 16.1737 28.821 15.4296 27.5843 14.6651C26.3424 13.8973 26.2936 12.497 27.5204 11.7194C28.8815 10.8563 30.2711 10.0384 31.6606 9.2205C32.2229 8.88956 32.7851 8.55863 33.3455 8.22472C33.6743 8.02861 34.0031 8.08051 34.3129 8.26623C34.6699 8.48036 35.027 8.69425 35.3842 8.90814L35.3845 8.90831C36.8836 9.80613 38.3828 10.704 39.8713 11.6194C40.4468 11.9731 40.9088 12.4484 40.9282 12.9444ZM21.3412 11.2518C22.2053 11.7589 23.1437 12.0097 23.8344 11.9896C25.1264 11.9828 26.058 11.7924 26.9087 11.2918C28.7184 10.2261 30.5259 9.15656 32.3319 8.0842C32.8635 7.76863 32.8722 7.70414 32.3552 7.39211C31.8825 7.10693 31.4115 6.81826 30.9406 6.52959C29.603 5.70971 28.2653 4.88975 26.8854 4.14939C25.2183 3.2548 23.4167 3.11169 21.7059 4.03411C20.2783 4.80402 18.885 5.63837 17.4918 6.47268C16.9969 6.76908 16.5019 7.06548 16.0055 7.35898C15.4656 7.67809 15.4687 7.76686 16.0261 8.1001C17.7941 9.15678 19.5647 10.2097 21.3412 11.2518ZM21.5689 13.309C21.5935 13.888 21.2644 14.3314 20.7914 14.6192C19.2956 15.5286 17.7883 16.4192 16.281 17.3098L16.28 17.3104C15.7881 17.601 15.2962 17.8917 14.8047 18.183C14.5346 18.3429 14.2783 18.2971 14.0147 18.1404C13.3719 17.7577 12.727 17.3784 12.0821 16.9992L12.082 16.9991C10.8286 16.262 9.57534 15.525 8.33736 14.7627C7.0743 13.9854 6.87493 12.4983 8.35252 11.6432C9.81817 10.7952 11.2651 9.91486 12.7122 9.0345C13.13 8.78029 13.5478 8.52608 13.9661 8.27264C14.2943 8.07367 14.5924 8.07389 14.9197 8.27065C16.0122 8.92724 17.1066 9.58073 18.201 10.2342L18.2029 10.2354L18.2044 10.2362L18.205 10.2366L18.2056 10.237L18.2062 10.2373L18.2068 10.2377L18.2074 10.2381L18.208 10.2384L18.2086 10.2388L18.2093 10.2392C18.9853 10.7026 19.7613 11.1659 20.5366 11.6304C21.1554 12.0012 21.584 12.4983 21.5689 13.309ZM21.2424 21.973C22.1766 22.5298 23.1796 22.8224 24.1479 22.7901C25.143 22.8016 25.9895 22.6687 26.754 22.2217C27.8324 21.5913 28.9079 20.9558 29.9834 20.3204L29.9838 20.3201C30.8033 19.8359 31.6229 19.3516 32.4437 18.8697C32.851 18.6305 32.8499 18.4571 32.4311 18.212C31.7603 17.8191 31.0948 17.4167 30.4293 17.0143C29.2958 16.3291 28.1625 15.6439 27.0037 15.0055C25.2467 14.0376 23.3827 13.9563 21.6026 14.9223C20.4084 15.5705 19.2427 16.2718 18.0769 16.9732L18.0768 16.9733C17.3899 17.3866 16.7028 17.8 16.0099 18.2025C15.5356 18.4779 15.6066 18.6345 16.0262 18.8798C17.5172 19.752 19.0009 20.6367 20.4846 21.5213L21.2424 21.973ZM14.4446 38.4498C13.8945 38.2363 13.4518 37.9569 13.0206 37.6848C12.9108 37.6155 12.8017 37.5466 12.6918 37.4795C12.2562 37.2135 11.815 36.9564 11.3737 36.6993C10.2605 36.0507 9.14733 35.4021 8.12556 34.6117C6.84492 33.6209 6.18438 32.2853 6.17031 30.6557C6.15877 29.3181 6.16153 27.9804 6.16428 26.6427V26.6427V26.6427V26.6427V26.6426V26.6426V26.6426V26.6426C6.16526 26.1704 6.16623 25.6983 6.16657 25.2261C6.16659 25.2078 6.16643 25.1891 6.16627 25.1702C6.16415 24.9181 6.16172 24.6279 6.56268 24.8701C7.12399 25.2091 7.6924 25.5372 8.26083 25.8653L8.26095 25.8653C9.68432 26.6869 11.1079 27.5085 12.4207 28.5019C13.7251 29.4888 14.378 30.8953 14.4298 32.516C14.4732 33.87 14.4634 35.2257 14.4534 36.6098C14.449 37.2169 14.4446 37.8295 14.4446 38.4498ZM15.0685 22.9218V22.9218V22.9218V22.9218V22.9219V22.9219V22.9219C15.0675 23.1925 15.0665 23.4632 15.0665 23.7337C15.0665 23.9603 15.0678 24.187 15.0691 24.4137V24.4137V24.4137V24.4138V24.4138V24.4138V24.4139C15.0721 24.9113 15.075 25.4087 15.0638 25.9056C15.0159 28.0464 15.9266 29.6682 17.7128 30.7907C19.0405 31.6251 20.3824 32.4366 21.7243 33.248L21.7243 33.248L21.7262 33.2491C22.0619 33.4521 22.3977 33.6551 22.7332 33.8585C23.2499 34.1719 23.342 34.1182 23.3438 33.5107C23.345 33.1175 23.3469 32.7242 23.3488 32.3309V32.3308V32.3307V32.3306V32.3305V32.3304V32.3303C23.3554 30.9741 23.362 29.6178 23.339 28.2621C23.3086 26.4802 22.5744 25.0272 21.1125 24.0051C19.9026 23.1593 18.6319 22.41 17.3613 21.6607L17.3613 21.6607L17.361 21.6605C16.7698 21.3118 16.1785 20.9632 15.5934 20.6048C15.1445 20.3296 15.0531 20.5182 15.0614 20.9585C15.0735 21.6127 15.071 22.2672 15.0685 22.9218ZM33.3664 23.8091C33.3664 24.0442 33.3662 24.2793 33.3659 24.5145V24.5145V24.5145V24.5145V24.5146V24.5146C33.3654 25.0436 33.3648 25.5726 33.3671 26.1017C33.3757 28.0442 32.5562 29.5476 30.9656 30.6279C29.7413 31.4595 28.4697 32.2141 27.1981 32.9687L27.1978 32.9689C26.6796 33.2763 26.1615 33.5838 25.6465 33.8965C25.2621 34.1299 25.1073 34.063 25.1029 33.6125C25.0988 33.1918 25.0913 32.771 25.0839 32.3501V32.3501V32.3501V32.35V32.35V32.35C25.0558 30.7596 25.0277 29.1687 25.1746 27.5842C25.3274 25.9359 26.2198 24.6889 27.5926 23.8201C28.6259 23.1662 29.6728 22.5341 30.7198 21.902L30.7198 21.902L30.7201 21.9018C31.4204 21.479 32.1207 21.0562 32.8169 20.6268C33.284 20.3389 33.3829 20.4926 33.3724 20.9736C33.3581 21.6416 33.361 22.3101 33.364 22.9786V22.9788C33.3652 23.2556 33.3664 23.5323 33.3664 23.8091ZM33.9866 37.1527C33.9649 37.5513 33.9536 37.9559 34.0992 38.4682C34.7777 38.049 35.4639 37.6514 36.147 37.2556L36.1472 37.2555C37.6448 36.3877 39.128 35.5284 40.4841 34.468C41.5175 33.6602 42.1369 32.5424 42.2307 31.2171C42.3395 29.6814 42.3156 28.1423 42.2917 26.6034V26.6033V26.6032V26.6031V26.603C42.2844 26.132 42.2771 25.6611 42.2736 25.1904C42.2703 24.7423 42.1046 24.7156 41.7746 24.9174C41.187 25.2771 40.5927 25.6264 39.9985 25.9757C38.7474 26.7112 37.4962 27.4467 36.3065 28.279C34.9582 29.2226 34.1891 30.5476 34.0497 32.2138C33.975 33.1069 33.9893 34.0012 34.0035 34.8957V34.8957V34.8957V34.8958V34.8958V34.8959V34.8959V34.896V34.896C34.0156 35.6484 34.0276 36.4009 33.9866 37.1527ZM33.3432 35.6382C33.3432 35.902 33.3426 36.1659 33.3419 36.4297C33.3403 37.0704 33.3387 37.711 33.3465 38.3516C33.3516 38.7489 33.2223 39.0428 32.8711 39.2526C31.8748 39.8482 30.8806 40.4473 29.8864 41.0464L29.8862 41.0464L29.8861 41.0465L29.8857 41.0468L29.8853 41.047C29.1314 41.5013 28.3776 41.9555 27.6228 42.4083C27.4351 42.5209 27.2375 42.624 27.0328 42.6998C26.0153 43.0754 25.1099 42.5289 25.0837 41.4474C25.0523 40.1389 25.0532 38.8295 25.0542 37.5202C25.0546 36.8596 25.0551 36.1991 25.0514 35.5386C25.0494 35.1621 25.2761 34.9448 25.5552 34.7756C25.9932 34.5104 26.4305 34.2441 26.8678 33.9777C28.2592 33.1303 29.6506 32.2829 31.0624 31.4715C32.2468 30.7911 33.2806 31.4271 33.3426 32.8042C33.3438 32.8333 33.3436 32.8623 33.3434 32.8913L33.3432 32.9248C33.3434 33.522 33.3433 34.1191 33.3433 34.7162V34.7163V34.7163V34.7337L33.3432 35.6382ZM23.3504 39.3497C23.3535 39.0741 23.3566 38.7985 23.3566 38.523H23.3735C23.3735 38.2506 23.3723 37.9781 23.371 37.7056V37.7056C23.3679 37.0323 23.3649 36.3591 23.3805 35.6862C23.3902 35.2817 23.2713 35.0063 22.9152 34.7943C22.2142 34.3771 21.517 33.9536 20.8198 33.5301C19.7213 32.8629 18.6229 32.1956 17.5102 31.5535C16.1442 30.7654 15.123 31.3753 15.1067 32.9534C15.0969 33.9025 15.0986 34.8519 15.1002 35.8012C15.1017 36.6427 15.1031 37.4842 15.0966 38.3256C15.0931 38.7799 15.2643 39.0778 15.6516 39.3057C16.4176 39.7564 17.1777 40.2172 17.9377 40.678C18.2888 40.8908 18.6399 41.1036 18.9915 41.3155C19.1812 41.4298 19.3703 41.5451 19.5595 41.6605L19.5596 41.6606L19.5597 41.6606L19.5598 41.6607C20.0533 41.9616 20.5469 42.2625 21.0501 42.546C22.0555 43.112 23.4355 42.828 23.3634 41.1788C23.3367 40.57 23.3436 39.9599 23.3504 39.3497ZM6.15594 19.5485V19.5484C6.15355 18.9071 6.15117 18.2657 6.16091 17.6245C6.18004 16.3607 7.00918 15.7923 8.17353 16.2478C8.52524 16.3854 8.86529 16.5643 9.18951 16.7593C9.90037 17.187 10.6088 17.6187 11.3173 18.0504L11.3178 18.0507C12.1464 18.5556 12.9751 19.0606 13.8076 19.5592C14.198 19.7931 14.4538 20.0643 14.4492 20.5554C14.4377 21.7646 14.4356 22.9738 14.4335 24.1831C14.4326 24.6639 14.4318 25.1447 14.4303 25.6255L14.4302 25.6738C14.4301 25.7583 14.4299 25.843 14.4233 25.9272C14.2938 27.5991 13.5113 28.0746 12.03 27.329C10.8135 26.7168 9.65781 25.9987 8.50202 25.2805C7.83917 24.8686 7.17627 24.4566 6.50185 24.0647C6.19696 23.8876 6.14047 23.621 6.14355 23.2995C6.14986 22.6065 6.1487 21.9136 6.14754 21.2206L6.14754 21.2202C6.14708 20.9473 6.14663 20.6744 6.14663 20.4015H6.15806C6.15806 20.1172 6.157 19.8328 6.15594 19.5485ZM42.3058 21.2346C42.3061 20.9691 42.3063 20.7037 42.3063 20.4383H42.2833C42.2833 20.1531 42.2846 19.8678 42.286 19.5825C42.2891 18.9428 42.2922 18.303 42.2797 17.6635C42.2534 16.3116 41.4506 15.7816 40.1933 16.2727C39.9893 16.3524 39.7897 16.4498 39.602 16.5627C38.5805 17.1772 37.5604 17.794 36.5403 18.4107C35.8655 18.8187 35.1907 19.2267 34.5155 19.634C34.2027 19.8228 34.0072 20.0733 34.0097 20.459C34.0136 21.0643 34.0138 21.6697 34.0139 22.2751C34.0142 23.5195 34.0145 24.7639 34.0479 26.0075C34.0892 27.5416 34.9294 28.021 36.3241 27.3747C36.4147 27.3325 36.5041 27.2877 36.5923 27.2408C37.7282 26.639 38.8217 25.9651 39.9151 25.2912C40.5752 24.8844 41.2352 24.4776 41.9045 24.0867C42.2217 23.9016 42.3103 23.619 42.3083 23.2745C42.3044 22.5946 42.3051 21.9146 42.3058 21.2346Z" fill="currentColor"/>
</svg>
