<svg width="1.5em" height="1.5em" viewBox="0 0 24 24" fill="none" xmlns="http://www.w3.org/2000/svg">
<path d="M17.1054 17.3674C17.1866 17.3674 17.2618 17.386 17.3306 17.4235C17.518 17.5235 17.6305 17.7608 17.643 18.1356L17.6369 20.3287C17.6307 20.7286 17.6307 21.1291 17.6369 21.529C17.6431 21.6975 17.5928 21.7602 17.4929 21.8164C16.8806 22.185 16.2617 22.5596 15.6495 22.9282L14.2191 23.7904C14.1129 23.8467 14.0062 23.9029 13.9 23.9466C13.6751 24.0278 13.469 24.0155 13.3191 23.9155C13.1816 23.8218 13.1069 23.6531 13.1006 23.4469C13.0819 22.6284 13.0817 21.8099 13.0817 20.9914V19.7606C13.0817 19.7044 13.0942 19.648 13.244 19.5544L14.0812 19.0479C14.9435 18.523 15.806 17.9984 16.6807 17.4986C16.8306 17.4111 16.9743 17.3674 17.1054 17.3674Z" fill="#DBE0E2"/>
<path d="M7.37015 17.3735C7.52011 17.3735 7.70169 17.4361 7.90164 17.5486C8.60142 17.9547 9.28892 18.373 9.98245 18.7916C10.4135 19.054 10.8444 19.3165 11.2755 19.5727C11.3816 19.6351 11.4132 19.6853 11.4195 19.8351C11.407 20.2599 11.4134 20.6788 11.4134 21.1037V21.3038L11.4006 22.1288C11.3943 22.5161 11.3886 22.9034 11.4073 23.2907C11.4135 23.5031 11.3818 23.7782 11.1693 23.9094C10.9819 24.028 10.6822 24.003 10.4261 23.8594C10.1136 23.6844 9.80717 23.497 9.501 23.3096L8.47035 22.6847C8.00171 22.4036 7.53261 22.1226 7.05772 21.8414C6.90792 21.7603 6.86433 21.6725 6.86429 21.504V19.9168C6.86429 19.3295 6.86414 18.7357 6.87039 18.1484C6.87039 17.7923 6.97678 17.5235 7.15169 17.4235C7.2141 17.3923 7.28903 17.3735 7.37015 17.3735Z" fill="#DBE0E2"/>
<path d="M2.12175 13.9929C2.99028 14.4928 3.88406 15.0112 4.69011 15.6173C5.40242 16.1547 5.78944 16.9425 5.82693 17.8861C5.85192 18.7232 5.84599 19.5541 5.83975 20.4288C5.8335 20.6475 5.83303 20.8728 5.83303 21.0915C5.69565 21.0103 5.55852 20.9287 5.42114 20.8413L5.21489 20.7101C4.94621 20.5476 4.66483 20.385 4.38989 20.2225C3.71508 19.8289 3.01506 19.4228 2.39024 18.9417C1.67178 18.3856 1.29694 17.6359 1.29064 16.7175C1.27815 15.8802 1.28454 15.0487 1.28454 14.2114V13.5054C1.55947 13.6678 1.84057 13.8305 2.12175 13.9929Z" fill="#DBE0E2"/>
<path d="M23.2227 13.4932C23.2227 13.7306 23.2292 13.9619 23.2417 14.1931C23.2542 15.1303 23.2732 16.0987 23.2044 17.0421C23.1545 17.767 22.8165 18.3922 22.2354 18.8484C21.4045 19.4981 20.5112 20.0169 19.5615 20.5667C19.2616 20.7354 18.9612 20.9098 18.6675 21.0848C18.6675 20.9911 18.668 20.8911 18.6743 20.7913C18.6992 20.3102 18.6927 19.8289 18.6865 19.3603C18.674 18.8167 18.6677 18.2606 18.7115 17.717C18.7865 16.7735 19.2177 16.0235 19.9862 15.4861C20.7235 14.9738 21.5108 14.505 22.2794 14.0552C22.5917 13.8678 22.9104 13.6806 23.2227 13.4932Z" fill="#DBE0E2"/>
<path d="M6.84537 10.7875C7.164 10.9812 7.48279 11.1749 7.80767 11.3623C8.58249 11.8185 9.38899 12.2935 10.1326 12.8122C10.9446 13.387 11.3696 14.1992 11.3884 15.2237C11.4009 16.061 11.4007 16.9048 11.3945 17.742V18.3919L10.8447 18.0606C10.0136 17.5607 9.17615 17.0549 8.35136 16.5363C7.30791 15.8802 6.81432 14.9741 6.83927 13.7495C6.85176 13.437 6.84537 13.1179 6.84537 12.8055V11.8871C6.85162 11.5185 6.85162 11.1561 6.84537 10.7875Z" fill="#DBE0E2"/>
<path d="M17.6558 13.8678C17.6621 14.9676 17.218 15.8113 16.2932 16.4362C15.5309 16.9548 14.7311 17.4298 13.95 17.8922C13.6689 18.0608 13.3877 18.2232 13.1128 18.3919L13.1006 17.7732C13.0819 16.8047 13.0693 15.7987 13.1568 14.824C13.238 13.9368 13.7002 13.2246 14.5248 12.706C15.1684 12.2936 15.8247 11.8999 16.4745 11.5063C16.8681 11.2689 17.2622 11.031 17.6558 10.7936V13.8678Z" fill="#DBE0E2"/>
<path d="M1.503 8.01289C1.64669 7.91921 1.85908 7.91969 2.10893 8.0196C2.29014 8.08833 2.48411 8.18814 2.69656 8.31311C3.14019 8.58179 3.5838 8.85052 4.02743 9.11919C4.54606 9.43787 5.06483 9.75015 5.58346 10.0626C5.79587 10.1875 5.83303 10.2754 5.83303 10.4128C5.82054 11.1688 5.82083 11.931 5.82083 12.6932V13.6115C5.82083 13.6552 5.82093 13.6991 5.81473 13.7427C5.78348 14.1489 5.68339 14.418 5.53342 14.5055C5.38347 14.5867 5.11487 14.5364 4.77127 14.3615C4.02151 13.9804 3.29641 13.5308 2.59039 13.0935C2.17802 12.8373 1.75944 12.5744 1.33458 12.3307C1.29709 12.3057 1.26562 12.2871 1.26562 12.1434V10.6374H1.27783V9.79408C1.27158 9.39424 1.27158 8.99426 1.27783 8.59441C1.27783 8.31323 1.35928 8.10661 1.503 8.01289Z" fill="#DBE0E2"/>
<path d="M22.7669 7.93173C22.8669 7.93174 22.9479 7.95085 23.0104 7.99458C23.1478 8.0883 23.2293 8.30676 23.2356 8.60662C23.2481 9.00653 23.2417 9.40043 23.2417 9.79408V10.6502H23.2545V12.1123C23.2545 12.2808 23.2106 12.3184 23.1544 12.3496C22.7295 12.5933 22.3171 12.8495 21.9047 13.1057C21.2362 13.5118 20.5425 13.9428 19.8428 14.3115C19.7867 14.3364 19.7365 14.3616 19.6866 14.3865C19.3555 14.5365 19.0927 14.5742 18.9427 14.4805C18.799 14.393 18.7116 14.1492 18.7054 13.8056C18.6804 13.0245 18.6802 12.2496 18.6865 11.4685V10.3439C18.6865 10.2565 18.7116 10.1816 18.8488 10.1004L22.0298 8.18191C22.1359 8.11948 22.242 8.06941 22.3544 8.0257C22.5106 7.96322 22.6482 7.93173 22.7669 7.93173Z" fill="#DBE0E2"/>
<path d="M10.7635 7.16348C11.7445 6.62612 12.8067 6.6449 13.8377 7.21351C14.5563 7.60715 15.2685 8.03835 15.9558 8.46322C16.3432 8.69441 16.7308 8.92523 17.1182 9.15642L15.6812 10.0064C15.0127 10.4 14.3439 10.7936 13.6754 11.1872C13.2943 11.4121 12.8378 11.4996 12.2067 11.4996H12.1945C11.6571 11.5184 11.0948 11.3559 10.5512 11.031L10.1197 10.7747C9.20752 10.2311 8.29519 9.68766 7.38296 9.15031C7.77656 8.91916 8.17012 8.68171 8.56372 8.4443C9.2823 8.01315 10.0199 7.56338 10.7635 7.16348Z" fill="#DBE0E2"/>
<path d="M6.13936 2.94572C6.18306 2.94572 6.22672 2.96456 6.27666 2.99575C6.97642 3.42061 7.68271 3.83905 8.38248 4.25766L9.7884 5.09487C10.1383 5.30731 10.2883 5.53868 10.2821 5.86983H10.276V5.88875C10.2884 6.15733 10.1009 6.32577 9.93851 6.42573C9.01373 6.9881 8.07662 7.54478 7.14559 8.09465L6.20221 8.65055C6.17097 8.6693 6.13949 8.68797 6.02708 8.62554C5.62093 8.38809 5.21465 8.14415 4.80849 7.90671C4.02749 7.45061 3.25272 6.99455 2.48421 6.51971C2.1781 6.32604 1.99049 6.05121 1.99665 5.78257C2.0029 5.53265 2.17793 5.28889 2.49031 5.10768C3.4151 4.57656 4.32763 4.02051 5.23991 3.46439L6.00206 2.99575C6.05825 2.96454 6.09567 2.94575 6.13936 2.94572Z" fill="#DBE0E2"/>
<path d="M18.2056 2.93961C18.2493 2.93966 18.3053 2.95212 18.3801 2.99575L19.0489 3.39544C19.9862 3.95781 20.9236 4.5139 21.8547 5.08877C22.1608 5.27621 22.3604 5.49503 22.3666 5.65748C22.3729 6.13233 22.2044 6.30106 22.017 6.41353C21.1859 6.91965 20.3487 7.41965 19.5115 7.91952L18.3179 8.63164C18.2492 8.67538 18.2054 8.68177 18.1116 8.62554C17.6868 8.36936 17.2558 8.11285 16.8247 7.85667C16.0562 7.40055 15.2812 6.93843 14.5126 6.46357C14.2315 6.28237 14.0629 6.03861 14.0629 5.78868C14.0629 5.54498 14.2127 5.31987 14.4626 5.14491C15.3061 4.60756 16.1872 4.08874 17.0432 3.58888C17.393 3.38274 17.7429 3.17687 18.0927 2.97073C18.124 2.95199 18.1619 2.93961 18.2056 2.93961Z" fill="#DBE0E2"/>
<path d="M10.8197 0.35233C11.7382 -0.14127 12.7567 -0.11622 13.7627 0.427386C14.6187 0.883529 15.4686 1.40848 16.2871 1.90836C16.5495 2.07077 16.8119 2.23304 17.0743 2.38921C15.9745 3.0453 14.8748 3.69569 13.7688 4.34553C13.3065 4.62034 12.7942 4.73285 12.0071 4.73912H11.843C11.4639 4.71979 11.01 4.56106 10.5945 4.32052C9.50725 3.67692 8.42016 3.03295 7.33293 2.3831L8.18905 1.87053C9.04505 1.35818 9.93242 0.833437 10.8197 0.35233Z" fill="#DBE0E2"/>
</svg>
